<?xml version="1.0" encoding="UTF-8" standalone="no"?>
<!DOCTYPE svg PUBLIC "-//W3C//DTD SVG 1.1//EN"
 "http://www.w3.org/Graphics/SVG/1.1/DTD/svg11.dtd">
<!-- Generated by graphviz version 2.43.20190912.0211 (20190912.0211)
 -->
<!-- Title: mux Pages: 1 -->
<svg width="380pt" height="175pt"
 viewBox="0.00 0.00 380.00 175.00" xmlns="http://www.w3.org/2000/svg" xmlns:xlink="http://www.w3.org/1999/xlink">
<g id="graph0" class="graph" transform="scale(1 1) rotate(0) translate(4 171)">
<title>mux</title>
<polygon fill="white" stroke="transparent" points="-4,4 -4,-171 376,-171 376,4 -4,4"/>
<text text-anchor="middle" x="186" y="-7.8" font-family="Times,serif" font-size="14.00">mux</text>
<!-- n1 -->
<g id="node1" class="node">
<title>n1</title>
<polygon fill="none" stroke="black" points="54,-141.54 54,-156.46 38.18,-167 15.82,-167 0,-156.46 0,-141.54 15.82,-131 38.18,-131 54,-141.54"/>
<text text-anchor="middle" x="27" y="-145.3" font-family="Times,serif" font-size="14.00">a</text>
</g>
<!-- c9 -->
<g id="node5" class="node">
<title>c9</title>
<polygon fill="none" stroke="black" points="90,-60.5 90,-129.5 282,-129.5 282,-60.5 90,-60.5"/>
<text text-anchor="middle" x="107.5" y="-114.3" font-family="Times,serif" font-size="14.00">A0</text>
<polyline fill="none" stroke="black" points="90,-106.5 125,-106.5 "/>
<text text-anchor="middle" x="107.5" y="-91.3" font-family="Times,serif" font-size="14.00">A1</text>
<polyline fill="none" stroke="black" points="90,-83.5 125,-83.5 "/>
<text text-anchor="middle" x="107.5" y="-68.3" font-family="Times,serif" font-size="14.00">S</text>
<polyline fill="none" stroke="black" points="125,-60.5 125,-129.5 "/>
<text text-anchor="middle" x="190.5" y="-98.8" font-family="Times,serif" font-size="14.00">$83</text>
<text text-anchor="middle" x="190.5" y="-83.8" font-family="Times,serif" font-size="14.00">sg13g2_mux2_1</text>
<polyline fill="none" stroke="black" points="256,-60.5 256,-129.5 "/>
<text text-anchor="middle" x="269" y="-91.3" font-family="Times,serif" font-size="14.00">X</text>
</g>
<!-- n1&#45;&gt;c9 -->
<g id="edge1" class="edge">
<title>n1:e&#45;&gt;c9:w</title>
<path fill="none" stroke="black" d="M54,-149C70.99,-149 70.28,-128.93 80.35,-121.09"/>
<polygon fill="black" stroke="black" points="81.54,-124.38 90,-118 79.41,-117.71 81.54,-124.38"/>
</g>
<!-- n2 -->
<g id="node2" class="node">
<title>n2</title>
<polygon fill="none" stroke="black" points="54,-87.54 54,-102.46 38.18,-113 15.82,-113 0,-102.46 0,-87.54 15.82,-77 38.18,-77 54,-87.54"/>
<text text-anchor="middle" x="27" y="-91.3" font-family="Times,serif" font-size="14.00">b</text>
</g>
<!-- n2&#45;&gt;c9 -->
<g id="edge2" class="edge">
<title>n2:e&#45;&gt;c9:w</title>
<path fill="none" stroke="black" d="M54,-95C66,-95 71.25,-95 79.88,-95"/>
<polygon fill="black" stroke="black" points="80,-98.5 90,-95 80,-91.5 80,-98.5"/>
</g>
<!-- n3 -->
<g id="node3" class="node">
<title>n3</title>
<polygon fill="none" stroke="black" points="54,-33.54 54,-48.46 38.18,-59 15.82,-59 0,-48.46 0,-33.54 15.82,-23 38.18,-23 54,-33.54"/>
<text text-anchor="middle" x="27" y="-37.3" font-family="Times,serif" font-size="14.00">sel</text>
</g>
<!-- n3&#45;&gt;c9 -->
<g id="edge3" class="edge">
<title>n3:e&#45;&gt;c9:w</title>
<path fill="none" stroke="black" d="M54,-41C70.99,-41 70.28,-61.07 80.35,-68.91"/>
<polygon fill="black" stroke="black" points="79.41,-72.29 90,-72 81.54,-65.62 79.41,-72.29"/>
</g>
<!-- n4 -->
<g id="node4" class="node">
<title>n4</title>
<polygon fill="none" stroke="black" points="372,-87.54 372,-102.46 356.18,-113 333.82,-113 318,-102.46 318,-87.54 333.82,-77 356.18,-77 372,-87.54"/>
<text text-anchor="middle" x="345" y="-91.3" font-family="Times,serif" font-size="14.00">y</text>
</g>
<!-- c9&#45;&gt;n4 -->
<g id="edge4" class="edge">
<title>c9:e&#45;&gt;n4:w</title>
<path fill="none" stroke="black" d="M282,-95C294,-95 299.25,-95 307.88,-95"/>
<polygon fill="black" stroke="black" points="308,-98.5 318,-95 308,-91.5 308,-98.5"/>
</g>
</g>
</svg>
