<svg xmlns="http://www.w3.org/2000/svg" xmlns:xlink="http://www.w3.org/1999/xlink" xmlns:s="https://github.com/nturley/netlistsvg" width="425" height="184"><style>svg {
  stroke:#000;
  fill:none;
}
text {
  fill:#000;
  stroke:none;
  font-size:10px;
  font-weight: bold;
  font-family: "Courier New", monospace;
}
line {
    stroke-linecap: round;
}
.nodelabel {
  text-anchor: middle;
}
.inputPortLabel {
  text-anchor: end;
}
.splitjoinBody {
  fill:#000;
}</style><g s:type="generic" transform="translate(90,66.5)" s:width="30" s:height="40" id="cell_$abc$82$auto$blifparse.cc:396:parse_blif$83"><text x="15" y="-4" class="nodelabel cell_$abc$82$auto$blifparse.cc:396:parse_blif$83" s:attribute="ref">sg13g2_mux2_1</text><rect width="30" height="60" s:generic="body" class="cell_$abc$82$auto$blifparse.cc:396:parse_blif$83"/><g transform="translate(0,10)" s:x="0" s:y="10" s:pid="in0" id="port_$abc$82$auto$blifparse.cc:396:parse_blif$83~A0"><text x="-3" y="-4" class="inputPortLabel cell_$abc$82$auto$blifparse.cc:396:parse_blif$83">A0</text></g><g transform="translate(0,30)" s:x="0" s:y="10" s:pid="in0" id="port_$abc$82$auto$blifparse.cc:396:parse_blif$83~A1"><text x="-3" y="-4" class="inputPortLabel cell_$abc$82$auto$blifparse.cc:396:parse_blif$83">A1</text></g><g transform="translate(0,50)" s:x="0" s:y="10" s:pid="in0" id="port_$abc$82$auto$blifparse.cc:396:parse_blif$83~S"><text x="-3" y="-4" class="inputPortLabel cell_$abc$82$auto$blifparse.cc:396:parse_blif$83">S</text></g><g transform="translate(30,10)" s:x="30" s:y="10" s:pid="out0" id="port_$abc$82$auto$blifparse.cc:396:parse_blif$83~X"><text x="5" y="-4" style="fill:#000; stroke:none" class="cell_$abc$82$auto$blifparse.cc:396:parse_blif$83">X</text></g></g><g s:type="inputExt" transform="translate(12,22)" s:width="30" s:height="20" id="cell_a"><text x="15" y="-4" class="nodelabel cell_a" s:attribute="ref">a</text><s:alias val="$_inputExt_"/><path d="M0,0 L0,20 L15,20 L30,10 L15,0 Z" class="cell_a"/><g s:x="30" s:y="10" s:pid="Y"/></g><g s:type="inputExt" transform="translate(12,87)" s:width="30" s:height="20" id="cell_b"><text x="15" y="-4" class="nodelabel cell_b" s:attribute="ref">b</text><s:alias val="$_inputExt_"/><path d="M0,0 L0,20 L15,20 L30,10 L15,0 Z" class="cell_b"/><g s:x="30" s:y="10" s:pid="Y"/></g><g s:type="inputExt" transform="translate(12,152)" s:width="30" s:height="20" id="cell_sel"><text x="15" y="-4" class="nodelabel cell_sel" s:attribute="ref">sel</text><s:alias val="$_inputExt_"/><path d="M0,0 L0,20 L15,20 L30,10 L15,0 Z" class="cell_sel"/><g s:x="30" s:y="10" s:pid="Y"/></g><g s:type="outputExt" transform="translate(383,67)" s:width="30" s:height="20" id="cell_y"><text x="15" y="-4" class="nodelabel cell_y" s:attribute="ref">y</text><s:alias val="$_outputExt_"/><path d="M30,0 L30,20 L15,20 L0,10 L15,0 Z" class="cell_y"/><g s:x="0" s:y="10" s:pid="A"/></g><line x1="42" x2="52" y1="32" y2="32" class="net_2 width_1" style="stroke-width: 1"/><line x1="52" x2="52" y1="32" y2="77" class="net_2 width_1" style="stroke-width: 1"/><line x1="52" x2="90" y1="77" y2="77" class="net_2 width_1" style="stroke-width: 1"/><line x1="42" x2="90" y1="97" y2="97" class="net_3 width_1" style="stroke-width: 1"/><line x1="42" x2="52" y1="162" y2="162" class="net_4 width_1" style="stroke-width: 1"/><line x1="52" x2="52" y1="162" y2="117" class="net_4 width_1" style="stroke-width: 1"/><line x1="52" x2="90" y1="117" y2="117" class="net_4 width_1" style="stroke-width: 1"/><line x1="121" x2="383" y1="77" y2="77" class="net_5 width_1" style="stroke-width: 1"/></svg>